<?xml version="1.0" encoding="UTF-8" standalone="no"?>
<svg
   xmlns:dc="http://purl.org/dc/elements/1.1/"
   xmlns:cc="http://creativecommons.org/ns#"
   xmlns:rdf="http://www.w3.org/1999/02/22-rdf-syntax-ns#"
   xmlns:svg="http://www.w3.org/2000/svg"
   xmlns="http://www.w3.org/2000/svg"
   viewBox="0 0 1866.6667 1306.6667"
   height="1306.6667"
   width="1866.6667"
   xml:space="preserve"
   id="svg2"
   version="1.1"><metadata
     id="metadata8"><rdf:RDF><cc:Work
         rdf:about=""><dc:format>image/svg+xml</dc:format><dc:type
           rdf:resource="http://purl.org/dc/dcmitype/StillImage" /></cc:Work></rdf:RDF></metadata><defs
     id="defs6"><clipPath
       id="clipPath20"
       clipPathUnits="userSpaceOnUse"><path
         id="path18"
         d="M 1.076,0 H 1400 V 980 H 1.076 Z" /></clipPath></defs><g
     transform="matrix(1.3333333,0,0,-1.3333333,0,1306.6667)"
     id="g10"><path
       id="path12"
       style="fill:#505745;fill-opacity:1;fill-rule:nonzero;stroke:none"
       d="M 1.076,0 H 1400 V 980 H 1.076 Z" /><g
       id="g14"><g
         clip-path="url(#clipPath20)"
         id="g16"><g
           transform="translate(1219.3965,995.4194)"
           id="g22"><path
             id="path24"
             style="fill:#6b6253;fill-opacity:1;fill-rule:nonzero;stroke:none"
             d="m 0,0 h 194.11 c 0,0 43.508,-207.101 18.965,-208.216 -24.543,-1.116 -51.317,-2.232 -65.819,-34.583 -14.502,-32.352 -41.276,-40.025 -72.512,-46.228 -31.236,-6.204 -46.854,-66.446 -94.824,-88.757 -47.97,-22.311 -200.804,-6.693 -266.622,10.041 -65.819,16.733 -166.22,-10.476 -204.15,51.656 -37.929,62.132 -71.397,125.72 -17.849,145.8 53.548,20.08 155.436,45.121 245.427,4.462 89.99,-40.658 134.796,-0.987 161.664,31.301 C -74.743,-102.237 0,0 0,0" /></g><g
           transform="translate(1.0767,699.6494)"
           id="g26"><path
             id="path28"
             style="fill:#6b6253;fill-opacity:1;fill-rule:nonzero;stroke:none"
             d="m 0,0 c 1.198,13.805 1.595,56.985 33.036,44.897 31.441,-12.087 54.753,-69.935 78.065,-60.438 23.312,9.497 38.853,5.18 64.755,11.224 25.902,6.044 18.132,18.056 37.127,33.204 18.995,15.147 35.399,35.006 41.443,9.967 6.044,-25.04 11.911,-77.213 35.743,-55.443 23.832,21.77 69.594,33.857 38.511,76.164 -31.083,42.307 -31.947,75.898 0.863,101.842 32.81,25.943 63.029,96.613 135.555,72.934 72.527,-23.679 116.3,-69.955 102.746,-125.676 C 554.29,52.954 537.624,-29.355 476.322,-61.302 415.021,-93.248 370.986,-138.054 316.592,-163.57 262.197,-189.086 208.838,-178.833 118.871,-190.813 28.904,-202.794 -7.492,-86.341 0,0" /></g><g
           transform="translate(-49.0786,329.5322)"
           id="g30"><path
             id="path32"
             style="fill:#6b6253;fill-opacity:1;fill-rule:nonzero;stroke:none"
             d="m 0,0 c 42.168,0 93.492,4.184 110.942,-19.978 17.451,-24.161 90.407,-65.076 106.755,-73.432 16.347,-8.357 22.583,-4.106 37.98,15.397 15.397,19.503 33.873,-5.194 35.927,-32.365 2.053,-27.171 -25.663,-41.542 16.423,-42.568 42.086,-1.027 89.195,5.381 65.695,-10.265 -23.5,-15.645 1.027,-11.291 -8.212,-45.165 -9.238,-33.874 -56.456,-91.357 -106.754,-72.881 -50.298,18.477 -50.298,119.071 -85.198,61.589 -34.9,-57.482 -51.324,-82.118 -110.86,-56.456 C 3.162,-250.462 0,0 0,0" /></g><g
           transform="translate(448.8062,312.877)"
           id="g34"><path
             id="path36"
             style="fill:#6b6253;fill-opacity:1;fill-rule:nonzero;stroke:none"
             d="m 0,0 c -43.947,-11.154 -130.455,19.054 -123.852,-32.462 6.604,-51.516 51.938,-125.183 86.563,-157.144 34.625,-31.962 191.77,-62.694 191.77,-62.694 0,0 202.424,-24.308 234.386,-37.406 31.962,-13.098 50.606,-25.083 34.625,8.21 -15.982,33.293 -81.236,60.879 -29.298,65.73 51.937,4.852 92.077,-20.541 113.197,15.505 21.12,36.046 34.522,31.515 19.976,59.294 -14.546,27.779 -17.313,60.562 -70.582,59.231 -53.27,-1.331 -5.327,23.565 -85.231,27.763 C 291.65,-49.774 270.342,38.36 161.14,16.933 51.938,-4.495 0,0 0,0" /></g><g
           transform="translate(688.5195,669.0332)"
           id="g38"><path
             id="path40"
             style="fill:#6b6253;fill-opacity:1;fill-rule:nonzero;stroke:none"
             d="m 0,0 c 45.984,7.692 88.766,29.672 141.6,10.299 52.834,-19.373 267.705,-42.742 298.521,-72.643 30.816,-29.902 55.284,-68.239 32.645,-98.708 -22.64,-30.469 -102.543,-45.445 -146.491,-17.981 -43.947,27.464 -90.557,44.988 -114.529,5.596 -23.972,-39.392 -60.418,-34.342 -107.871,-43.387 -47.453,-9.045 25.303,-31.961 -26.635,-43.947 -51.937,-11.987 10.655,82.566 -43.947,58.595 -54.601,-23.97 -76.211,-16.763 -118.524,-23.97 -42.314,-7.208 -158.477,0 -113.198,25.302 45.279,25.303 70.582,103.876 123.851,86.563 53.27,-17.312 102.544,-74.635 102.544,-18.673 C 27.966,-76.992 -47.994,-8.029 0,0" /></g><g
           transform="translate(281.4731,935.8081)"
           id="g42"><path
             id="path44"
             style="fill:#867561;fill-opacity:1;fill-rule:nonzero;stroke:none"
             d="M 0,0 C 0,0 -47.742,-21.826 -23.871,-58.655 0,-95.485 58.914,-85.823 73.66,-92.757 c 14.746,-6.933 48.424,12.158 68.885,18.015 20.461,5.856 68.204,14.591 81.845,27.616 13.64,13.024 10.913,15.07 7.502,34.167 -3.411,19.097 11.594,46.378 37.512,30.01 25.917,-16.369 51.152,-19.969 44.332,5.02 -6.82,24.989 25.235,51.588 39.558,25.671 14.323,-25.917 31.374,-55.927 36.83,-23.871 5.456,32.056 30.692,51.835 47.743,37.512 17.05,-14.323 55.925,52.219 -95.486,20.653 C 190.97,50.471 0,0 0,0" /></g><g
           transform="translate(469.3647,679.3325)"
           id="g46"><path
             id="path48"
             style="fill:#867561;fill-opacity:1;fill-rule:nonzero;stroke:none"
             d="m 0,0 c -15.352,-8.243 -47.533,-8.169 -67.029,-10.299 -19.497,-2.13 -13.915,-39.811 -45.315,-49.58 -31.401,-9.769 -72.57,26.552 -91.41,3.856 -18.841,-22.696 25.12,-28.48 6.978,-46.522 -18.143,-18.041 -20.934,2.325 -36.983,-8.905 -16.049,-11.23 -4.885,-32.163 -28.61,-21.696 -23.724,10.466 -23.026,31.4 -46.751,33.493 -23.725,2.093 -32.524,-25.338 -53.73,-36.341 -21.206,-11.002 -41.867,-0.642 -65.592,-30.647 -23.725,-30.004 -55.823,-100.482 -30.703,-129.788 25.121,-29.307 66.988,-15.352 80.246,0 13.258,15.351 32.098,-19.538 27.213,0 -4.884,19.538 -24.422,11.165 -20.235,45.356 4.187,34.192 3.489,62.104 26.516,54.428 23.027,-7.676 6.28,-41.868 25.818,-36.983 19.538,4.884 -2.792,41.867 18.142,30.004 20.934,-11.862 18.143,-48.146 42.566,-33.493 24.422,14.654 11.164,41.867 43.96,32.098 32.796,-9.769 97.69,-39.773 108.157,-0.697 10.467,39.075 -4.884,66.987 25.819,76.756 30.702,9.769 58.614,-14.654 69.778,11.165 11.165,25.818 -21.631,26.516 4.885,38.378 26.516,11.862 53.031,28.609 72.57,13.258 19.538,-15.351 18.839,-34.889 35.586,-25.12 16.748,9.769 5.75,17.444 8.457,44.658 2.708,27.214 10.284,86.557 -55.906,71.174 C -11.763,9.171 0,0 0,0" /></g><g
           transform="translate(1165.0439,972.1484)"
           id="g50"><path
             id="path52"
             style="fill:#867561;fill-opacity:1;fill-rule:nonzero;stroke:none"
             d="m 0,0 c -14.015,2.131 -109.905,34.587 -141.624,19.097 -31.719,-15.49 -90.728,-56.059 -98.842,-67.124 -8.114,-11.064 -12.54,-19.178 11.802,-22.129 24.342,-2.95 29.194,-19.178 47.79,-10.326 18.596,8.851 28.185,27.81 51.789,25.338 23.605,-2.472 12.341,-8.955 22.398,-20.835 10.058,-11.88 44.726,-14.83 27.023,-26.632 -17.703,-11.803 -56.377,-24.342 -77.24,-11.803 -20.864,12.54 -32.665,4.878 -49.631,-11.207 -16.966,-16.085 2.213,-26.412 -22.129,-25.674 -24.342,0.738 -42.045,-44.257 -6.639,-42.044 35.407,2.213 32.456,8.113 46.471,-17.703 14.015,-25.817 19.177,-42.045 42.044,-17.704 22.867,24.342 57.545,9.59 38.73,33.194 -18.814,23.604 -46.835,39.831 0,44.995 46.835,5.163 40.934,-11.065 54.949,6.639 14.014,17.703 26.553,25.816 42.782,3.688 16.228,-22.129 7.376,-36.145 29.505,-45.733 22.129,-9.589 39.832,-5.163 34.669,-29.505 -5.163,-24.342 -15.492,-15.642 -23.605,-29.95 -8.113,-14.308 1.476,-34.224 -16.227,-34.224 -17.703,0 -60.485,12.746 -54.584,-13.174 5.9,-25.92 45.732,-62.801 87.777,-79.767 42.045,-16.965 101.792,13.278 106.218,38.357 4.426,25.079 14.014,59.748 0,70.075 -14.015,10.326 -12.539,28.767 -14.752,49.421 -2.213,20.653 -29.1,3.158 -45.53,25.183 -16.431,22.025 10.862,20.549 -3.891,47.104 -14.753,26.554 -22.13,18.44 -39.095,49.421 C 33.193,-62.042 0,0 0,0" /></g><g
           transform="translate(283.6704,258.9043)"
           id="g54"><path
             id="path56"
             style="fill:#867561;fill-opacity:1;fill-rule:nonzero;stroke:none"
             d="m 0,0 c 0,0 -15.218,-48.361 -56.961,-39.75 0,0 -45.582,-45.277 6.355,-70.581 51.938,-25.304 122.52,-118.524 157.145,-159.809 34.625,-41.284 102.544,-67.918 117.192,-46.61 14.649,21.308 -13.317,90.12 23.972,81.017 37.288,-9.104 81.235,20.195 99.88,-11.767 18.644,-31.962 57.264,-33.875 102.543,-22.64 45.28,11.236 121.188,-1.333 117.193,19.976 -3.995,21.309 18.644,21.199 -59.928,41.895 -78.572,20.697 -77.241,14.309 -103.875,46.135 -26.635,31.826 -70.582,77.106 -98.549,54.466 -27.966,-22.64 -47.942,-95.933 -82.567,-71.271 -34.626,24.661 -18.645,32.651 -9.322,59.286 9.322,26.634 29.233,50.096 -13.35,41.029 C 157.145,-87.691 73.246,-90.965 85.231,-55.369 97.216,-19.773 73.182,-1.534 47.245,0 21.308,1.534 0,0 0,0" /></g><g
           transform="translate(804.3799,490)"
           id="g58"><path
             id="path60"
             style="fill:#867561;fill-opacity:1;fill-rule:nonzero;stroke:none"
             d="m 0,0 c 45.082,-6.167 9.636,-41.787 46.768,-44.45 37.131,-2.663 76.459,-35.956 82.098,-6.658 5.64,29.297 22.951,52.44 38.933,19.561 15.981,-32.879 35.957,-45.303 0,-65.725 -35.957,-20.423 -66.586,-29.746 -45.278,-52.385 21.307,-22.64 10.653,-41.386 33.292,-34.676 22.64,6.71 67.917,17.364 85.231,-11.935 17.313,-29.298 43.947,-51.938 0,-73.246 -43.947,-21.307 -100.541,-47.911 -132.838,-33.943 -32.297,13.968 38.286,-6.009 14.315,25.953 -23.972,31.962 -37.291,75.909 -82.569,67.919 -45.278,-7.99 -107.87,12.227 -130.51,49.395 -22.639,37.168 -104.003,-16.656 -173.125,-16.933 -69.123,-0.277 -134.505,96.717 -77.241,91.39 57.265,-5.328 110.534,13.316 133.174,18.643 22.639,5.327 23.971,0.001 45.279,25.304 21.307,25.303 36.274,67.917 56.091,35.956 19.817,-31.961 23.813,-87.894 41.125,-53.269 C -47.942,-24.474 -42.616,5.83 0,0" /></g><g
           transform="translate(1393.0078,339.1279)"
           id="g62"><path
             id="path64"
             style="fill:#867561;fill-opacity:1;fill-rule:nonzero;stroke:none"
             d="m 0,0 c -46.7,-15.12 -148.493,66.666 -154.163,33.178 -5.67,-33.489 -12.304,-47.524 14.331,-62.382 26.635,-14.859 80.42,-9.531 60.186,-32.171 -20.235,-22.64 -4.252,-14.649 -16.239,-37.289 -11.986,-22.64 -39.952,21.308 -71.914,0 -31.962,-21.308 -10.879,-64.457 13.636,-105.207 24.515,-40.75 76.923,-37.289 110.216,-53.27 33.293,-15.98 9.321,-50.438 -27.967,-84.481 -37.288,-34.043 -6.659,-64.747 65.255,-42.736 71.914,22.01 118.524,-69.879 105.207,105.91 C 85.23,-102.659 65.019,21.052 0,0" /></g><g
           transform="translate(966.8525,-52.6553)"
           id="g66"><path
             id="path68"
             style="fill:#867561;fill-opacity:1;fill-rule:nonzero;stroke:none"
             d="m 0,0 c 0,0 -43.741,81.78 15.418,92.896 59.159,11.117 93.348,-14.298 135.516,10.395 42.168,24.693 136.72,7.787 76.793,-10.395 C 167.799,74.715 147.61,64.062 115.755,26.772 83.899,-10.517 0,0 0,0" /></g><g
           transform="translate(430.689,878.8994)"
           id="g70"><path
             id="path72"
             style="fill:#61503e;fill-opacity:1;fill-rule:nonzero;stroke:none"
             d="m 0,0 c 42.234,22.907 79.081,23.146 88.726,0 9.644,-23.146 24.11,-49.185 40.505,-41.47 16.395,7.715 34.719,30.405 71.367,26.293 36.648,-4.112 36.648,-34.009 57.864,-20.507 21.217,13.502 -12.538,52.002 23.146,48.183 35.684,-3.819 71.368,-10.116 98.371,0.265 27.003,10.382 26.039,-34.173 71.366,-27.808 45.327,6.364 61.722,16.973 81.975,-7.138 20.253,-24.11 32.79,-31.825 0,-35.683 -32.79,-3.858 13.503,-29.897 -46.291,-20.253 -59.794,9.644 -101.263,65.58 -115.73,34.719 -14.466,-30.861 27.968,-72.33 -16.395,-76.188 -44.363,-3.858 -65.218,17.999 -49.185,-11.573 16.033,-29.572 79.081,-46.292 35.683,-53.043 -43.399,-6.751 -154.306,-11.573 -189.025,-7.715 -34.719,3.857 -77.153,7.849 -97.406,-7.649 -20.252,-15.497 -31.825,-17.426 -27.003,22.115 4.822,39.541 34.963,30.861 38.699,56.9 C 70.402,-94.513 -56.9,-30.861 0,0" /></g><g
           transform="translate(438.2119,392.7275)"
           id="g74"><path
             id="path76"
             style="fill:#61503e;fill-opacity:1;fill-rule:nonzero;stroke:none"
             d="m 0,0 c 27.196,-8.994 26.428,-44.903 54.743,-47.735 28.315,-2.832 21.708,-1.888 50.967,0 29.26,1.887 31.147,-6.608 50.024,14.157 18.877,20.765 45.304,-21.709 62.293,-5.663 16.99,16.046 -33.034,32.234 0,39.241 33.035,7.007 76.452,37.209 85.89,14.558 9.438,-22.652 -9.438,-31.254 16.046,-27.897 25.483,3.358 59.461,-1.362 45.304,-25.902 -14.158,-24.54 -53.604,-12.269 -55.589,-39.641 -1.986,-27.372 36.712,-31.439 78.241,-3.922 41.529,27.518 96.27,-1.742 84.945,-23.45 -11.325,-21.708 -52.855,2.831 -51.911,-18.877 0.944,-21.708 8.494,-89.665 -48.136,-53.799 -56.63,35.867 -77.394,9.44 -123.643,4.72 -46.248,-4.72 -57.574,11.326 -51.911,59.462 5.663,48.136 -14.158,42.473 -43.417,21.708 -29.259,-20.765 -50.967,29.259 -54.742,-5.663 -3.776,-34.922 43.417,-47.192 7.55,-46.248 -35.866,0.943 -38.934,26.031 -61.468,11.128 -22.534,-14.904 -18.758,36.064 -58.399,19.075 -39.642,-16.989 -59.664,25.483 -69.946,-5.663 -10.281,-31.147 24.641,-45.305 -23.495,-43.417 -48.136,1.888 -110.429,15.102 -73.619,56.631 36.809,41.528 65.124,70.788 109.485,80.226 C -26.427,-17.532 -33.035,10.926 0,0" /></g><g
           transform="translate(-49.0786,623.3096)"
           id="g78"><path
             id="path80"
             style="fill:#61503e;fill-opacity:1;fill-rule:nonzero;stroke:none"
             d="m 0,0 c 31.954,-7.772 72.545,-31.955 97.59,-37.136 25.046,-5.182 -6.045,-7.218 12.955,-18.291 19,-11.073 41.454,-0.709 30.227,-25.754 -11.227,-25.046 -38,-18.136 -39.727,-43.182 -1.727,-25.045 -10.363,-22.453 -24.182,-42.318 -13.818,-19.864 9.501,-14.748 0.864,-41.055 -8.637,-26.308 1.727,-51.353 26.773,-47.899 25.045,3.454 0.863,-38.863 53.544,-24.181 52.682,14.681 57.864,-3.455 50.091,-23.319 -7.772,-19.863 -13.226,-13.819 2.887,-46.636 16.113,-32.818 52.386,-30.228 23.022,-45.773 -29.363,-15.545 -25.909,-8.637 -60.454,9.5 -34.545,18.137 -26.772,32.819 -44.045,26.773 -17.273,-6.045 -4.318,-19 -37.136,-10.364 -32.819,8.637 -31.091,0 -39.727,25.909 -8.637,25.91 -9.172,9.851 -30.495,29.971 z" /></g><g
           transform="translate(0,-33.623)"
           id="g82"><path
             id="path84"
             style="fill:#61503e;fill-opacity:1;fill-rule:nonzero;stroke:none"
             d="M 0,0 C 0,0 -0.666,34.173 6.058,50.982 12.782,67.792 -14.779,56.866 -7.39,77.878 0,98.89 8.579,87.965 21.187,109.816 c 12.607,21.852 5.883,44.544 29.417,21.852 23.533,-22.692 44.545,-26.544 39.502,9.421 -5.043,35.965 -21.012,80.511 24.373,58.658 45.386,-21.852 53.791,-94.994 88.25,-86.159 34.46,8.835 37.874,18.08 23.98,44.975 -13.894,26.896 25.609,-15.968 58.388,-15.968 32.778,0 4.202,-3.363 5.883,26.054 1.681,29.417 49.982,19.332 64.073,-10.925 14.091,-30.258 -22.217,-23.245 0,-44.136 22.218,-20.891 63.664,-3.395 47.282,-39.724 C 385.954,37.535 375.027,-18.776 280.894,-17.096 186.761,-15.415 0,0 0,0" /></g><g
           transform="translate(1429.0186,305.667)"
           id="g86"><path
             id="path88"
             style="fill:#61503e;fill-opacity:1;fill-rule:nonzero;stroke:none"
             d="m 0,0 c -13.304,11.739 -20.348,25.042 -39.912,10.956 -19.565,-14.086 -43.825,-3.913 -64.173,11.739 -20.348,15.653 -160.433,181.563 -176.084,202.693 -15.651,21.13 -17.999,46.955 -42.26,49.303 -24.26,2.348 -43.043,-3.913 -55.564,13.304 -12.522,17.217 -7.825,28.956 -27.391,10.174 -19.565,-18.782 -34.435,-35.217 -61.043,-10.174 -26.607,25.043 -19.564,1.468 -33.651,-16.874 -14.087,-18.343 -5.478,-26.168 -38.347,-20.69 -32.869,5.478 -32.088,-3.131 -46.174,6.26 -14.086,9.392 -23.478,26.609 0,42.261 23.479,15.652 51.652,39.129 79.826,46.173 28.173,7.043 54.782,21.913 70.433,36.782 15.652,14.869 17.217,-8.609 37.565,0 20.347,8.608 6.838,32.086 26.114,20.347 19.276,-11.739 37.276,-35.999 39.624,-18 2.348,18 -6.261,41.478 18.782,36 25.043,-5.479 10.956,-73.564 35.999,-66.521 25.043,7.043 67.304,18.783 71.999,-10.173 4.695,-28.956 25.826,-48.521 55.565,-32.087 29.738,16.435 156.519,9.391 159.649,-43.826 C 14.087,214.431 0,0 0,0" /></g><g
           transform="translate(885.1592,1085.1953)"
           id="g90"><path
             id="path92"
             style="fill:#61503e;fill-opacity:1;fill-rule:nonzero;stroke:none"
             d="m 0,0 c 32.911,-1.874 77.885,-31.856 108.804,-41.226 30.919,-9.369 118.992,-21.549 158.343,-14.991 39.352,6.559 12.181,-21.55 44.037,-25.297 31.855,-3.748 64.649,4.685 59.027,-12.18 -5.622,-16.866 -11.244,-17.803 -5.622,-41.226 5.622,-23.423 18.738,-14.414 -6.559,-40.937 -25.297,-26.523 5.622,-51.821 -22.486,-48.073 -28.108,3.748 -31.857,14.035 -54.343,55.739 -22.486,41.704 -24.361,44.515 -44.973,23.902 -20.613,-20.613 5.623,16.574 -31.856,31.242 -37.478,14.668 -44.036,-9.693 -65.586,-23.747 -21.55,-14.054 -55.28,6.447 -88.073,19.023 -32.793,12.576 -74.954,32.509 -79.64,63.428 C -33.612,-23.423 0,0 0,0" /></g><g
           transform="translate(-29.8086,968.001)"
           id="g94"><path
             id="path96"
             style="fill:#333331;fill-opacity:1;fill-rule:nonzero;stroke:none"
             d="m 0,0 c 17.774,-7.703 11.626,-18.96 29.809,-11.85 18.182,7.11 41.881,27.254 38.327,1.185 -3.555,-26.069 -36.735,-26.07 -27.255,-42.659 9.48,-16.59 41.474,-6.517 68.137,2.963 26.662,9.479 33.772,-25.478 51.546,-17.775 17.774,7.702 -5.333,20.145 14.812,19.552 20.145,-0.593 55.694,-33.18 61.619,-17.775 5.924,15.405 -25.477,36.734 0,35.549 25.477,-1.185 47.399,-18.959 46.214,1.185 -1.185,20.145 -28.439,51.547 4.147,54.509 32.587,2.963 50.954,-2.962 42.659,-24.884 -8.294,-21.922 14.813,-27.847 32.587,-15.405 17.774,12.443 33.179,19.685 20.145,-7.043 -13.035,-26.729 -61.619,-26.729 -77.616,-33.839 -15.997,-7.109 -26.069,-26.661 12.442,-30.809 38.512,-4.147 126.792,-10.665 97.76,-34.957 -29.031,-24.292 -67.543,-13.627 -58.656,-36.141 8.887,-22.515 68.136,-22.514 50.362,-53.916 -17.775,-31.402 -106.056,-49.177 -112.573,23.107 -6.517,72.283 -11.85,28.439 -50.362,9.479 -38.511,-18.959 -71.098,-10.664 -88.873,25.477 -17.774,36.142 -25.477,22.515 -37.326,9.48 -11.85,-13.035 -15.405,7.702 -31.994,-8.295 -16.59,-15.997 -20.737,-12.442 -43.252,-15.997 -22.514,-3.555 -21.877,-13.627 -30.809,0.592 -8.933,14.22 4.147,14.813 5.332,34.957 1.185,20.145 -1.14,-4.739 -7.703,40.289 C 2.917,-47.992 0,0 0,0" /></g><g
           transform="translate(582.2314,701.9224)"
           id="g98"><path
             id="path100"
             style="fill:#333331;fill-opacity:1;fill-rule:nonzero;stroke:none"
             d="m 0,0 c 15.112,4.478 14.77,10.462 0,26.462 -14.77,16 -54.154,38.153 -21.539,45.538 32.616,7.385 80,15.385 98.462,-4.923 18.461,-20.307 32,-59.077 56,-54.769 24,4.308 40,0 59.692,12.308 19.693,12.307 22.155,50.461 51.693,38.769 29.538,-11.693 42.461,-9.231 33.845,-32 -8.615,-22.769 -21.538,-61.538 -4.923,-48.615 16.616,12.922 34.462,35.692 63.385,36.307 28.923,0.615 48,-6.769 60.308,-32 12.307,-25.231 48,-30.769 16,-42.461 -32,-11.693 -70.153,-1.231 -92.923,-25.846 -22.77,-24.616 -34.461,-54.77 -53.538,-40 -19.077,14.769 -3.077,36.922 -25.847,32.615 -22.769,-4.308 -20.307,-13.539 -48.615,-8 -28.308,5.538 -27.692,39.385 -48.615,43.077 -20.923,3.692 1.231,-20.923 -16,-35.692 C 110.154,-104 97.231,-128 84.308,-104 c -12.924,24 15.999,40.615 -7.385,43.692 -23.384,3.078 -25.846,14.154 -51.077,-7.384 -25.231,-21.538 -36.924,-21.539 -48.616,5.538 -11.691,27.077 6.77,36.051 -8.615,39.564 -15.385,3.513 -22.769,-3.513 -38.154,0 -15.384,3.513 -22.768,5.36 -4.922,21.975 17.845,16.615 3.076,28.923 25.845,31.385 22.77,2.461 22.154,-4.309 31.385,-19.078 C -8,-3.077 -16.615,-4.923 0,0" /></g><g
           transform="translate(1419.3311,717.5366)"
           id="g102"><path
             id="path104"
             style="fill:#333331;fill-opacity:1;fill-rule:nonzero;stroke:none"
             d="m 0,0 c 0,0 -8.429,-23.8 -19.331,-40.525 -10.902,-16.725 -8.973,-21.227 -19.265,-11.579 -10.292,9.649 14.153,36.666 -11.578,30.233 -25.73,-6.432 -75.26,10.936 -78.476,-13.508 -3.217,-24.444 21.227,-34.736 3.859,-39.239 -17.368,-4.502 -34.735,-1.286 -30.876,-22.513 3.859,-21.228 23.801,-19.298 12.222,-30.876 -11.579,-11.579 -18.013,-7.076 -7.72,-30.876 10.293,-23.801 17.988,-13.509 -5.157,-19.941 -23.146,-6.433 -11.568,-18.655 -31.508,-21.228 -19.941,-2.573 -31.521,-4.502 -27.66,12.865 3.86,17.368 -18.654,57.497 -44.384,46.438 -25.73,-11.059 -35.38,-3.339 -40.525,-22.637 -5.146,-19.298 -18.655,12.222 -27.017,-17.368 -8.362,-29.59 21.228,-34.602 8.362,-45.283 -12.865,-10.68 -38.595,10.548 -41.811,-26.118 -3.216,-36.666 66.255,-89.413 74.617,-59.179 8.362,30.233 16.082,54.677 26.374,30.233 10.292,-24.444 -38.597,-57.894 0.643,-73.975 39.239,-16.081 81.049,-39.881 100.347,-7.718 19.298,32.162 18.655,25.73 30.234,5.789 11.578,-19.942 19.297,-62.397 37.308,-42.455 18.011,19.941 38.594,25.085 36.022,41.168 -2.573,16.082 -5.146,23.158 -1.286,34.736 3.859,11.578 18.654,37.307 1.929,31.518 -16.724,-5.789 -22.513,-12.864 -28.946,1.288 -6.433,14.151 0,40.524 -18.654,19.94 -18.655,-20.584 -17.369,-54.676 -39.882,-42.454 -22.514,12.222 -27.66,20.584 -10.936,39.238 16.725,18.654 5.79,13.509 16.082,33.449 10.292,19.941 12.221,25.73 32.162,23.157 19.942,-2.573 18.654,-1.93 43.098,-1.287 24.444,0.644 48.887,-4.502 31.52,9.006 -17.368,13.509 -22.513,5.147 -36.022,25.087 -13.509,19.941 -11.579,46.314 9.649,30.233 21.227,-16.081 36.319,-3.215 48.243,7.72 z" /></g><g
           transform="translate(1023.5156,290.6357)"
           id="g106"><path
             id="path108"
             style="fill:#333331;fill-opacity:1;fill-rule:nonzero;stroke:none"
             d="m 0,0 c -11.168,26.803 63.001,19.766 76.59,13.589 13.589,-6.177 17.295,-2.471 36.442,-22.854 19.148,-20.382 39.53,-12.971 60.531,-16.059 21.001,-3.088 39.677,-11.117 41.766,-33.354 2.089,-22.236 23.09,-22.854 41.002,-43.854 17.912,-21 -1.854,-21.001 4.94,-35.207 6.795,-14.206 37.061,-0.617 52.502,-8.03 15.442,-7.412 -10.5,-16.676 0,-29.03 10.5,-12.353 21.001,-4.94 32.737,-15.441 11.735,-10.501 42.037,-37.678 29.974,-46.325 -12.062,-8.648 -48.505,-1.236 -66.417,25.324 -17.912,26.559 -27.177,-22.237 -46.325,-9.883 -19.147,12.353 -13.588,29.647 -41.383,27.795 -27.795,-1.853 -87.091,-30.267 -102.533,17.912 -15.441,48.179 -35.823,73.503 -63.001,58.679 -27.178,-14.824 -59.297,-19.765 -79.679,-19.148 -20.383,0.617 -69.796,-35.208 -67.326,1.853 2.471,37.06 16.059,16.059 21.618,30.265 5.56,14.206 11.737,22.854 32.12,24.089 20.382,1.236 -17.913,21.001 6.794,32.737 24.707,11.735 45.09,-12.97 56.208,6.795 C 37.677,-20.383 9.266,-22.236 0,0" /></g><g
           transform="translate(276.7544,481.4971)"
           id="g110"><path
             id="path112"
             style="fill:#333331;fill-opacity:1;fill-rule:nonzero;stroke:none"
             d="m 0,0 c 1.466,31.521 37.061,-19.766 55.59,-17.295 18.53,2.471 28.413,-6.794 44.472,-19.147 16.059,-12.354 30.883,-5.558 33.972,9.265 3.088,14.823 14.206,77.826 42.618,66.09 28.413,-11.736 32.119,-3.28 45.708,1.448 13.588,4.728 37.677,11.523 40.765,-11.948 3.089,-23.472 39.531,-13.589 0,-40.148 -39.53,-26.56 -59.295,-15.442 -56.825,-36.443 2.471,-21.001 10.501,-33.353 17.913,-19.147 7.412,14.206 58.06,38.294 64.237,14.823 6.176,-23.471 25.324,-40.766 0,-44.472 -25.325,-3.706 -62.385,6.177 -76.591,-8.029 -14.206,-14.206 -38.913,-20.384 -67.943,-29.648 -29.03,-9.265 -24.089,-49.413 -53.737,-38.295 -29.648,11.118 -53.736,30.729 -71.031,-1.93 -17.295,-32.659 -61.767,-84.544 -68.561,-7.953 -6.795,76.591 43.236,36.443 51.884,63.62 8.647,27.177 -2.471,15.44 4.941,36.441 7.412,21.001 5.56,8.648 -9.882,27.178 C -17.912,-37.06 -1.235,-26.56 0,0" /></g><g
           transform="translate(673.8872,-45.2305)"
           id="g114"><path
             id="path116"
             style="fill:#333331;fill-opacity:1;fill-rule:nonzero;stroke:none"
             d="m 0,0 c 0,0 -15.629,41.678 -6.512,74.238 9.116,32.561 -2.476,-15.629 32.625,-19.536 35.1,-3.907 14.262,15.629 58.545,15.629 44.282,0 98.983,-13.025 58.608,-35.166 C 102.891,13.024 0,0 0,0" /></g><g
           transform="translate(226.709,-16.5771)"
           id="g118"><path
             id="path120"
             style="fill:#333331;fill-opacity:1;fill-rule:nonzero;stroke:none"
             d="m 0,0 c 14.774,10.419 44.73,39.071 75.988,42.979 31.258,3.909 26.048,-32.56 45.584,-10.418 19.537,22.141 46.887,89.867 65.121,53.399 18.234,-36.468 24.747,-45.231 54.703,-57.307 29.955,-12.076 9.116,-15.63 -5.21,-37.77 C 221.859,-31.258 0,0 0,0" /></g><g
           transform="translate(-41.3066,719.1724)"
           id="g122"><path
             id="path124"
             style="fill:#333331;fill-opacity:1;fill-rule:nonzero;stroke:none"
             d="M 0,0 C 26.772,-0.863 62.182,11.227 64.772,-21.591 67.363,-54.409 49.227,-57 49.227,-79.454 c 0,-22.455 29.364,-24.181 25.909,-44.909 -3.454,-20.727 -1.727,-8.636 -9.5,-22.454 -7.773,-13.819 -14.682,8.636 -38,10.363 C 4.318,-134.727 0,0 0,0" /></g><g
           transform="translate(758.7891,1007.4302)"
           id="g126"><path
             id="path128"
             style="fill:#333331;fill-opacity:1;fill-rule:nonzero;stroke:none"
             d="m 0,0 c -14.484,-8.69 47.783,6.558 53.405,-14.054 5.622,-20.613 34.667,-40.289 47.784,-37.478 13.118,2.811 -13.117,-16.865 3.749,-14.991 16.865,1.874 26.233,20.613 42.162,9.37 15.928,-11.243 14.992,-23.424 44.037,-18.739 29.045,4.684 12.271,-22.487 34.244,-12.181 21.973,10.307 30.404,4.685 29.468,22.487 -0.937,17.802 1.029,-14.054 -29.468,8.433 -30.497,22.486 -7.072,23.424 -49.235,46.847 C 133.982,13.117 28.108,16.865 0,0" /></g><g
           transform="translate(1429.1553,966.9629)"
           id="g130"><path
             id="path132"
             style="fill:#333331;fill-opacity:1;fill-rule:nonzero;stroke:none"
             d="m 0,0 c -24.492,0 -42.998,15.24 -39.732,-6.531 3.265,-21.771 -2.723,-33.746 -20.139,-36.467 -17.416,-2.721 -4.354,-42.998 20.139,-48.985 24.492,-5.987 -21.826,-38.1 29.908,-25.581 C 41.909,-105.045 0,0 0,0" /></g></g></g></g></svg>